<?xml version="1.0" standalone="no"?>
<!DOCTYPE svg PUBLIC "-//W3C//DTD SVG 1.1//EN" "http://www.w3.org/Graphics/SVG/1.1/DTD/svg11.dtd" >
<svg xmlns="http://www.w3.org/2000/svg" xmlns:xlink="http://www.w3.org/1999/xlink" version="1.1">
<metadata></metadata>
<defs>
<font id="inktrapbold" horiz-adv-x="880" >
<font-face units-per-em="2048" ascent="1536" descent="-512" />
<missing-glyph horiz-adv-x="512" />
<glyph horiz-adv-x="0" />
<glyph horiz-adv-x="0" />
<glyph unicode="&#xd;" horiz-adv-x="512" />
<glyph unicode=" "  horiz-adv-x="512" />
<glyph unicode="&#x09;" horiz-adv-x="512" />
<glyph unicode="&#xa0;" horiz-adv-x="512" />
<glyph unicode="!" horiz-adv-x="550" d="M127 1434h297l-35 -1133h-233zM145 -33v226h256v-226h-256z" />
<glyph unicode="&#x22;" horiz-adv-x="839" d="M117 1464h256l-41 -503h-174zM467 1464h256l-41 -503h-174z" />
<glyph unicode="#" horiz-adv-x="1447" d="M156 406v204h221l43 240h-264v205h299l61 350h215l-61 -350h254l61 350h215l-61 -350h170v-205h-205l-43 -240h248v-204h-283l-65 -375h-216l66 375h-254l-68 -375h-215l68 375h-186zM530 588l29 -35q4 4 16.5 15t19 16t17 12.5t20.5 10.5t21 3h131q8 0 15 -1.5t14 -5.5 t11.5 -7.5t11.5 -10.5l10.5 -10.5t11 -13t10.5 -12.5l35 29q-2 2 -8.5 9.5t-8 9.5t-8 10t-7.5 10t-6 10t-5 10t-3.5 10.5t-1.5 11t1 11.5l23 121q2 12 10.5 24.5t15.5 19t23.5 20t21.5 17.5l-30 35q-3 -2 -11.5 -10.5t-12.5 -12l-12 -10.5t-13.5 -10t-13 -7t-15 -5.5 t-15.5 -1.5h-133q-10 0 -19 3.5t-18 11t-15 13t-16 17t-14 16.5l-34 -28q3 -4 11.5 -14.5t12 -14.5t10.5 -14.5t8 -15.5t4 -16t-1 -17l-21 -121q-2 -12 -10.5 -24.5t-15.5 -19.5t-24 -20.5t-22 -17.5z" />
<glyph unicode="&#x26;" horiz-adv-x="1761" d="M141 399q0 140 102 251.5t310 183.5q-211 147 -211 299q0 150 111 239.5t309 89.5q186 0 299 -97t113 -239q0 -49 -14 -92t-46.5 -89t-95 -90.5t-152.5 -84.5l377 -338q56 64 73 110.5t19 112.5h205q0 -224 -135 -370l291 -285h-264l-117 109q-45 43 -45 159h-47 q0 -119 -47 -159q-83 -73 -183 -109.5t-272 -36.5q-128 0 -229.5 27t-166 70t-107 101.5t-60 117t-17.5 120.5zM401 422q0 -38 16 -73.5t51 -68.5t101.5 -53t155.5 -20q185 0 334 100l-389 371q-145 -65 -207 -125.5t-62 -130.5zM575 1128q0 -80 168 -219q112 45 161.5 95.5 t49.5 113.5q0 65 -48 109.5t-138 44.5q-86 0 -139.5 -44t-53.5 -100z" />
<glyph unicode="'" horiz-adv-x="518" d="M115 1464h254l-35 -503h-184z" />
<glyph unicode="(" horiz-adv-x="878" d="M258 555q-1 118 14 223.5t55 225t77 209t110 251.5h246q-56 -124 -77 -172t-62 -146.5t-57 -152.5t-37 -135.5t-27.5 -153t-5.5 -149.5q2 -144 38 -291t73 -239t130 -297q15 -34 23 -52h-246q-49 111 -63 142.5t-52 122t-49.5 127t-35 111t-31 124.5t-15.5 117t-8 135z " />
<glyph unicode=")" horiz-adv-x="751" d="M106 1464h240q40 -87 48 -104.5t41 -92.5t40.5 -95t33 -84t31.5 -89.5t23 -81t21 -89.5t12 -84.5t9.5 -96.5t0.5 -96q-2 -151 -35 -293.5t-68.5 -231t-123.5 -281.5q-20 -45 -31 -69h-239q11 24 48 106.5t46.5 104.5t38.5 90t37.5 95t28.5 85.5t26.5 95t17 90t13.5 103.5 t4 105q1 116 -14 220t-51.5 214t-73.5 198t-102 233q-15 32 -22 48z" />
<glyph unicode="*" horiz-adv-x="1128" d="M152 1184l63 176l227 -78q14 -5 24.5 -15.5t22 -31t15.5 -25.5l39 27q-4 5 -19.5 22.5t-22.5 31t-7 28.5l2 217h184l6 -217q0 -15 -7 -28.5t-22.5 -31t-19.5 -22.5l39 -27q3 5 11.5 19.5t13.5 22.5t14.5 17.5t19.5 12.5l230 78l65 -176l-250 -90q-8 -5 -22.5 -3t-23 5 t-23 8.5t-23.5 7.5l-12 -43q8 -3 29 -7.5t35.5 -10.5t23.5 -17l158 -209l-148 -110l-151 178q-7 9 -10 21.5t-3 22t1 25.5t1 23h-47q0 -6 2 -29t0 -37.5t-10 -25.5l-145 -178l-148 110l154 209q8 11 22 17t35 10.5t29 7.5l-12 43q-9 -2 -24 -7.5t-23.5 -8.5t-23 -5t-22.5 3z " />
<glyph unicode="+" horiz-adv-x="1171" d="M190 500v225h271v285h235v-285h287v-225h-287v-289h-235v289h-271z" />
<glyph unicode="," horiz-adv-x="548" d="M147 0v225h256v-223q0 -100 -67 -164.5t-180 -64.5v112q74 0 104 54q5 8 12 16t12 13.5t15.5 14t14.5 11.5t17 12.5t15 11.5l-27 37q-5 -4 -18 -14t-20.5 -15.5t-19 -12.5t-22.5 -10t-22 -3h-70z" />
<glyph unicode="-" d="M172 479v223h578v-223h-578z" />
<glyph unicode="." horiz-adv-x="532" d="M143 0v246h246v-246h-246z" />
<glyph unicode="/" horiz-adv-x="780" d="M47 0l428 1464h242l-430 -1464h-240z" />
<glyph unicode="0" horiz-adv-x="1220" d="M49 717q0 161 38.5 296.5t112 236.5t188.5 157.5t261 56.5q145 0 260 -56.5t188.5 -157.5t111.5 -236.5t38 -296.5t-38 -297t-111.5 -237.5t-188.5 -158.5t-260 -57t-260.5 57t-189 158.5t-112 237.5t-38.5 297zM326 715q0 -98 18.5 -182.5t56 -153.5t101 -108.5 t147.5 -39.5q83 0 146.5 39.5t101 108.5t56 153.5t18.5 182.5t-18.5 183t-56 153.5t-101 107.5t-146.5 39q-84 0 -147.5 -39t-101 -107.5t-56 -153t-18.5 -183.5z" />
<glyph unicode="1" horiz-adv-x="1185" d="M283 942v246q113 0 191.5 71.5t78.5 174.5h326v-1434h-269v956q0 10 1 20t4.5 21.5t5.5 20t8 21t8.5 19.5t10 21t10 19t10.5 19.5t10 17.5l-41 20q-5 -9 -21 -40t-26 -47.5t-27.5 -37t-36.5 -29.5q-121 -59 -243 -59z" />
<glyph unicode="2" horiz-adv-x="1216" d="M96 0v248q4 4 56.5 58t103.5 105t146 142.5t198 185.5q66 61 109 118t60.5 102.5t19 84.5t-13.5 67.5t-39.5 48.5t-56.5 30t-67 10q-51 0 -90.5 -18.5t-63 -46.5t-38.5 -65.5t-20 -71t-5 -66.5h-272q0 47 8.5 95.5t28.5 101t50 100.5t76 91.5t102.5 75t134 50t167.5 18.5 q86 0 161.5 -31.5t127.5 -83t83.5 -120t36 -140.5t-22.5 -147t-85 -137q-262 -277 -452 -471q-15 -15 -39 -29t-41 -21.5t-49.5 -20.5l-42.5 -17l18 -43q6 3 41 18t50.5 21t42.5 13t48 7h541v-262h-1012z" />
<glyph unicode="3" horiz-adv-x="1345" d="M143 430h260q0 -113 91 -177.5t251 -64.5q166 0 238 67t72 194q0 29 -4.5 51t-18.5 40t-30.5 29.5t-48.5 20.5t-65 14t-87.5 7.5t-107.5 3.5t-134 1v236q118 0 195 5t135 17.5t88.5 35.5t44.5 56t14 83q0 103 -69.5 149.5t-221.5 46.5q-151 0 -236 -64t-85 -177h-260 q2 76 20.5 141.5t61.5 125.5t107 102t162.5 66.5t223.5 24.5q287 0 422 -92.5t135 -300.5q0 -177 -178 -280q-17 -11 -43.5 -16.5t-43.5 -6t-54 0.5t-45 1l-2 -45q11 0 46.5 1t53.5 0.5t44 -5.5t44 -16q199 -111 199 -302q0 -213 -144 -323.5t-434 -110.5q-159 0 -277 37 t-185 103t-99.5 145.5t-34.5 175.5z" />
<glyph unicode="4" horiz-adv-x="1423" d="M154 330v219l673 883v2h367v-846h201v-256h-201v-332h-268v330h-772zM395 563l21 -41q100 51 145 60q19 4 35 4l330 2v426q0 27 8 56t26 75.5t21 54.5l-45 17q-2 -7 -10.5 -35t-13 -41.5t-13 -35.5t-17.5 -39t-20 -30l-303 -372q-13 -17 -36 -33t-37 -23.5t-50 -25 t-41 -19.5z" />
<glyph unicode="5" horiz-adv-x="1345" d="M109 401h307q14 -71 97.5 -125.5t227.5 -54.5q147 0 219 75.5t72 217.5q0 94 -69.5 150.5t-171.5 56.5q-155 0 -250.5 -43t-126.5 -107h-260l170 863h901v-250h-680l-68 -262q-6 -21 -20 -42.5t-38.5 -51.5t-29.5 -37l37 -27q9 13 26 43.5t33 52.5t35 33q123 72 314 72 q213 0 341 -131.5t128 -356.5q0 -224 -159 -366t-417 -142q-231 0 -399 113t-219 319z" />
<glyph unicode="6" horiz-adv-x="1413" d="M147 674q0 182 48 327t134.5 239.5t204.5 144t259 49.5q102 0 186.5 -23t140.5 -60t97 -87.5t62 -102t30 -106.5h-273q-20 57 -83.5 100t-139.5 43q-137 0 -234.5 -84.5t-127.5 -236.5q-12 -50 -78 -179l41 -20q8 16 23 57.5t31 70t38 44.5q137 111 358 111 q126 0 231.5 -63t166.5 -171.5t61 -237.5q0 -136 -66.5 -254t-194 -192t-288.5 -74q-627 0 -627 705zM442 479q0 -110 82 -183t228 -73q149 0 229 69t80 187q0 246 -289 246q-149 0 -239.5 -70t-90.5 -176z" />
<glyph unicode="7" horiz-adv-x="1185" d="M127 1184v250h1053v-250q-607 -749 -660 -1184h-311q14 136 78.5 299.5t157 315.5t178.5 273t170 220q13 16 35 31t39.5 23.5t48 22t42.5 19.5l-18 41q-6 -3 -27.5 -13t-31.5 -14.5t-30 -12t-33 -11.5t-29.5 -7t-30.5 -3h-631z" />
<glyph unicode="8" horiz-adv-x="1325" d="M213 367q0 141 66 225t202 137q21 8 49 9t64.5 -2t50.5 -3l2 45q-15 1 -51.5 -1.5t-64.5 -0.5t-48 12q-225 99 -225 304q0 160 144 266t362 106t362 -106.5t144 -267.5q0 -209 -234 -306q-21 -8 -49.5 -9t-63.5 1.5t-51 1.5v-45q16 0 53 3t56 3q33 0 57 -8 q133 -48 195.5 -128t62.5 -224q0 -193 -143.5 -301.5t-400.5 -108.5q-255 0 -397 105t-142 293zM467 381q0 -95 73 -151t214 -56q142 0 214 56t72 153q0 98 -71 149.5t-211 51.5t-215.5 -53.5t-75.5 -149.5zM508 1087q0 -86 67.5 -134t186.5 -48q121 0 189.5 48.5 t68.5 133.5q0 84 -66 129.5t-190 45.5q-123 0 -189.5 -46t-66.5 -129z" />
<glyph unicode="9" horiz-adv-x="1585" d="M205 926q0 99 39.5 190.5t110.5 162.5t177.5 113t231.5 42q172 0 295 -50t195 -146t104.5 -221t32.5 -288q0 -377 -145.5 -568.5t-405.5 -191.5q-122 0 -223 27t-166 68.5t-113 98t-72 110t-35 110.5h281q36 -65 111.5 -111.5t197.5 -46.5q289 0 305 426q2 34 22 103.5 t23 83.5l-43 10q-1 -4 -13.5 -80t-29.5 -106q-54 -98 -135 -147.5t-225 -49.5q-103 0 -195.5 29.5t-165.5 85.5t-116 145.5t-43 200.5zM483 944q0 -104 79 -163.5t218 -59.5q134 0 202.5 61.5t68.5 161.5q0 99 -74.5 165.5t-208.5 66.5q-136 0 -210.5 -63.5t-74.5 -168.5z " />
<glyph unicode=":" horiz-adv-x="548" d="M111 0v264h264v-264h-264zM111 760v264h264v-264h-264z" />
<glyph unicode=";" horiz-adv-x="548" d="M131 741v283h272v-283h-272zM139 0v225h256v-200q0 -21 -2 -29q0 -97 -67.5 -163.5t-178.5 -70.5v113q69 5 101 53q46 59 94 92l-27 39q-3 -2 -19 -15t-23 -17.5t-20.5 -12.5t-24.5 -11t-23 -3h-66z" />
<glyph unicode="&#x3c;" horiz-adv-x="1290" d="M127 643v207h2l995 397v-270l-542 -186q-23 -8 -49 -12.5t-60.5 -6.5t-53 -2.5t-61.5 0t-51 0.5v-47q8 0 51 0.5t61.5 0t53 -2.5t60.5 -6.5t49 -12.5l542 -184v-272l-995 399z" />
<glyph unicode="=" horiz-adv-x="1185" d="M121 389v221h930v-221h-930zM121 805v219h930v-219h-930z" />
<glyph unicode="&#x3e;" horiz-adv-x="1239" d="M127 246v272l545 184q23 8 49 12.5t59.5 6.5t52 2.5t61 0t50.5 -0.5v47q-8 0 -50.5 -0.5t-61 0t-52 2.5t-59.5 6.5t-49 12.5l-545 186v270l995 -397h2v-207l-2 2z" />
<glyph unicode="?" horiz-adv-x="1081" d="M66 1077q2 38 11 79.5t39 99t76.5 101.5t133 75.5t198.5 31.5q192 0 310 -97t118 -259q0 -68 -21 -123t-55 -92t-75 -68.5t-81.5 -61t-74.5 -61.5t-55 -78t-21 -102v-233h-231v223q0 75 20.5 139t53 108.5t71.5 82.5t78.5 68t72 58.5t53 61t20.5 68.5q0 73 -39.5 117.5 t-112.5 44.5q-105 0 -175 -59t-75 -124h-239zM334 -31v195h241v-195h-241z" />
<glyph unicode="@" horiz-adv-x="2322" d="M90 510q1 178 56.5 335.5t154.5 276t231.5 204.5t291 130.5t327.5 44.5t327 -42t293 -126.5t235.5 -203t157.5 -280t58 -347.5q0 -307 -104 -487.5t-301 -180.5q-142 0 -233 74t-91 209v170h-43q0 -29 -9.5 -65t-33.5 -78t-59 -77t-92 -62t-126 -34q-50 -4 -75 -2 q-107 3 -201.5 47.5t-161.5 117.5t-106 173t-39 211q0 224 151.5 376.5t378.5 158.5q30 2 84 -2q85 -9 155.5 -40.5t113.5 -76.5q23 -25 37 -57t25.5 -73t16.5 -54l43 14q-5 14 -22 52.5t-27 67.5t-12 54l-2 61h205v-784q0 -101 30 -138.5t82 -37.5q27 0 49 11t38 27 t28.5 44t20.5 52.5t13.5 62t8.5 63.5t4.5 66.5t1.5 60.5v55q0 158 -43.5 289t-119 221.5t-179 153.5t-222.5 92t-251 29q-175 0 -324.5 -53.5t-258.5 -151t-170.5 -243t-61.5 -322.5q0 -219 106.5 -389.5t289.5 -262.5t411 -92q144 0 278 35l70 -233q-185 -41 -365 -41 q-170 0 -319 39t-261.5 108.5t-201.5 163.5t-145 205.5t-85 233t-28 247.5zM827 516q0 -130 76 -216.5t211 -86.5q91 0 158.5 44t100.5 111t38 148q0 139 -76 217t-213 78q-141 0 -218 -82.5t-77 -212.5z" />
<glyph unicode="A" horiz-adv-x="1329" d="M-33 2l529 1436h307l553 -1436h-281l-192 500h-457l-176 -500h-283zM451 702h399l-168 381q-8 19 -10 43t0 60.5t2 44.5h-47q0 -11 1 -35.5t1.5 -40t-2.5 -36.5t-9 -36z" />
<glyph unicode="B" horiz-adv-x="1325" d="M139 0v1434h561q69 0 123.5 -3.5t110.5 -13t98.5 -26t80.5 -43.5t62 -63.5t38 -88t14 -115.5q0 -110 -56.5 -176t-179.5 -110q-25 -9 -55 -11q-11 -1 -24 0q-22 0 -49 2q-43 2 -56 2v-45q13 1 56 3q27 2 49 1q12 -1 24 -1q30 -2 55 -9q52 -17 92 -35t82.5 -46.5 t70.5 -62.5t46 -84t18 -110q0 -102 -26 -174t-71 -116.5t-120 -69.5t-158 -34t-200 -9q-19 0 -137 1t-189 1v2h-260zM399 203h240q180 0 236 9q107 19 139 92q18 41 18 104q0 54 -13.5 92.5t-47.5 62t-64.5 37t-94.5 19.5t-104.5 7t-125.5 1q-92 0 -162 2h-21v-426zM399 895 h234q63 0 105.5 3t87 13t70.5 28.5t43 51t17 78.5q0 33 -8.5 57.5t-20.5 41t-37 27.5t-46 17t-61.5 9t-68.5 3.5t-81 0.5h-234v-330z" />
<glyph unicode="C" horiz-adv-x="1574" d="M70 719q0 210 95 380.5t264 267.5t378 97q158 0 283.5 -41t205 -113t125 -162t56.5 -196h-271q-11 41 -26 73.5t-45.5 67.5t-71.5 58.5t-106 39t-148 15.5q-133 0 -239 -57t-169 -169.5t-63 -262.5q0 -225 133 -357.5t338 -132.5q87 0 155.5 15.5t111 38.5t74.5 58.5 t47.5 68t27.5 73.5h270q-30 -245 -199.5 -378.5t-480.5 -133.5q-211 0 -381.5 97.5t-267 269.5t-96.5 383z" />
<glyph unicode="D" horiz-adv-x="1527" d="M139 0v1464h600q202 0 364 -89.5t255.5 -253.5t93.5 -373q0 -157 -56.5 -296.5t-152.5 -239t-230 -157.5q-132 -57 -279 -57h-5l-354 2h-236zM408 252h282q140 0 256.5 69t181 181.5t64.5 240.5q0 197 -139.5 332t-352.5 135h-292v-958z" />
<glyph unicode="E" horiz-adv-x="1185" d="M139 0v1434h1000v-250h-740v-328h688v-250h-688v-356h750v-250h-1010z" />
<glyph unicode="F" horiz-adv-x="1212" d="M139 0v1434h1000v-260h-731v-369h618v-258h-618v-547h-269z" />
<glyph unicode="G" horiz-adv-x="1648" d="M70 717q0 158 57.5 296.5t157.5 237.5t242 156t304 57q240 0 419.5 -106.5t250.5 -298.5q-17 -4 -44.5 -10.5t-86.5 -20t-97.5 -22t-37.5 -7.5q-47 99 -158.5 155t-261.5 56q-212 0 -344.5 -138t-132.5 -355q0 -218 143 -357t369 -139q93 0 168.5 23t121.5 58t77 80 t43 85.5t12 77.5h-385v231h674v-776h-258v115q0 37 8.5 79.5t26.5 106t22 78.5l-43 10q-7 -23 -18 -82.5t-25 -103t-39 -70.5q-65 -70 -168.5 -118t-247.5 -48q-156 0 -294.5 57.5t-238.5 157t-158 239t-58 296.5z" />
<glyph unicode="H" horiz-adv-x="1570" d="M139 0v1434h269v-576h755v576h269v-1434h-269v604h-755v-604h-269z" />
<glyph unicode="I" horiz-adv-x="544" d="M139 0v1434h269v-1434h-269z" />
<glyph unicode="J" horiz-adv-x="1038" d="M16 225l166 156q52 -82 129 -123q67 -36 142 -36q11 0 22 1q81 5 118.5 51t37.5 146v1010h268v-1029q0 -223 -107 -327.5t-321 -104.5q-156 0 -262.5 59.5t-192.5 196.5z" />
<glyph unicode="K" horiz-adv-x="1421" d="M139 0v1434h260v-445q0 -17 -3.5 -35.5t-11.5 -41t-13 -34t-18 -39t-15 -32.5l41 -19q4 8 18.5 41t22.5 49t23.5 39t31.5 37l543 480h344l-580 -551l637 -883h-325l-510 725l-185 -164v-561h-260z" />
<glyph unicode="L" horiz-adv-x="1148" d="M139 0v1434h260v-1184h695v-250h-955z" />
<glyph unicode="M" horiz-adv-x="1957" d="M139 0v1434h410l387 -985q6 -17 10.5 -38.5t7 -38.5t3.5 -44.5t1 -40.5v-43.5v-38.5h46q0 11 -0.5 46t0 53.5t2 47.5t6 52.5t12.5 44.5l387 985h408v-1434h-269v1014q0 45 21 137t24 109l-45 8q-3 -14 -14.5 -110t-26.5 -138l-370 -1020h-318l-372 1020 q-15 42 -26.5 136.5t-14.5 109.5l-46 -6q3 -19 24.5 -111t21.5 -135v-1014h-269z" />
<glyph unicode="N" horiz-adv-x="1558" d="M139 0v1434h269l653 -867q15 -20 28.5 -43.5t27.5 -59t20 -50.5t22 -62.5t17 -50.5l45 14q-1 3 -11 32t-12.5 36t-11 34t-11.5 38.5t-9 35t-8.5 38t-4.5 34t-2 35.5v836h268v-1434h-268l-653 864q-11 15 -21.5 32t-21 38.5t-17.5 37.5t-16.5 43t-14 39t-14.5 42t-12 37 l-43 -17q2 -6 11 -32t12.5 -35.5t11.5 -34.5t11.5 -37.5t9 -35t8 -38t4.5 -34.5t2 -35v-834h-269z" />
<glyph unicode="O" horiz-adv-x="1552" d="M70 717q0 156 55 295t149.5 238t225 156.5t276.5 57.5q145 0 276.5 -60.5t225.5 -161.5t149.5 -238.5t55.5 -286.5q0 -199 -93.5 -371.5t-257 -275.5t-356.5 -103q-195 0 -357 98.5t-255.5 270.5t-93.5 381zM340 717q0 -92 27.5 -177.5t80 -156.5t137.5 -113.5t191 -42.5 q85 0 157.5 28t123.5 76t87 111t53 132.5t17 142.5q0 91 -28 176.5t-80.5 155.5t-138 112.5t-191.5 42.5t-191 -42.5t-137.5 -112.5t-80 -155.5t-27.5 -176.5z" />
<glyph unicode="P" horiz-adv-x="1236" d="M123 0v1434h536q82 0 148 -6.5t131.5 -23t114 -46.5t87 -74.5t58 -110t19.5 -149.5q0 -101 -29.5 -176.5t-79 -122.5t-125.5 -76t-158.5 -40t-187.5 -11q-142 0 -246 2v-600h-268zM391 823h225q43 0 74.5 1.5t69 6t64 13t52.5 23.5t42 36t26 51.5t10 69.5q0 30 -6 54 t-14.5 41.5t-26 31.5t-32 23t-41.5 15.5t-46.5 9.5t-53.5 4.5t-56 2t-62 0.5h-225v-383z" />
<glyph unicode="Q" horiz-adv-x="1630" d="M72 717q0 211 94.5 381.5t265 268t383.5 97.5q215 0 385.5 -91t265.5 -254t95 -369q0 -103 -11.5 -187t-39.5 -167.5t-82.5 -151t-133.5 -115.5l164 -293h-260l-84 164q-4 9 -7.5 18t-5 19.5t-3 19t-1 21.5t0.5 19.5t2 21t2.5 19.5t3 21t2.5 19l-45 8q-1 -5 -4 -24.5 t-5 -27.5t-5.5 -25.5t-7.5 -27t-10 -22.5t-14 -22.5t-18 -16.5q-77 -53 -231 -53q-200 0 -360 98.5t-248 269.5t-88 382zM340 717q0 -135 53 -251t154.5 -188.5t230.5 -72.5q106 0 211 65l-166 295h260l50 -98q17 -33 17 -88q1 -4 1 -8q0 -50 -6 -84l45 -4q11 105 45 174 q33 62 52.5 141t19.5 152q0 126 -59 233.5t-171 174.5t-254 67t-254 -71.5t-170.5 -186.5t-58.5 -250z" />
<glyph unicode="R" horiz-adv-x="1359" d="M139 0v1434h512q104 0 185.5 -9.5t159.5 -35.5t129.5 -70t82.5 -116.5t31 -170.5q0 -128 -58.5 -201.5t-166.5 -119.5q-24 -11 -58 -16t-58 -5q-6 0 -13 -1q-22 -1 -54 1q-43 2 -57 2v-47q11 0 74 4q28 2 51 2q29 0 49 -3q38 -5 66 -23q58 -34 91 -97t60 -170 q8 -36 35.5 -125.5t50.5 -160.5l23 -72h-277q-18 71 -39.5 156.5t-32.5 129t-14 56.5q-12 42 -28.5 75t-32.5 54.5t-38.5 37.5t-38.5 24t-41 12.5t-37.5 5.5t-36.5 1.5t-31 0.5h-49h-179v-553h-260zM399 774h232q94 0 168 24.5t123 83.5t49 146q0 65 -25.5 111t-74 70.5 t-106.5 35t-134 10.5h-232v-481z" />
<glyph unicode="S" horiz-adv-x="1409" d="M70 279l202 131q72 -98 173.5 -144.5t256.5 -46.5q142 0 225 48t83 124q0 44 -31 81t-83.5 65t-120.5 54t-143.5 52t-151 54t-143.5 64.5t-120.5 79.5t-83.5 103t-31 131q0 117 83.5 206.5t222.5 136t309 46.5q341 0 579 -256l-202 -135q-152 168 -437 168 q-108 0 -186 -41t-78 -110q0 -33 32.5 -61t87 -51t125 -45.5t149 -48t157 -55t149 -70.5t125 -90t87 -118t32.5 -150q0 -132 -86.5 -231t-237.5 -150t-345 -51q-199 0 -340 75.5t-258 234.5z" />
<glyph unicode="T" horiz-adv-x="1193" d="M80 1184v250h1034v-250h-383v-1184h-268v1184h-383z" />
<glyph unicode="U" horiz-adv-x="1527" d="M129 498l2 936h268v-861q2 -143 106.5 -247.5t258.5 -104.5t260 105q104 103 104 242v5v861h269v-936v-6q-1 -96 -31 -180q-32 -86 -89 -148.5t-136 -106.5t-174.5 -66t-202.5 -22q-181 0 -323 60t-226.5 181.5t-85.5 287.5z" />
<glyph unicode="V" horiz-adv-x="1460" d="M41 1434h287l358 -981q8 -21 12.5 -44.5t6.5 -54.5t2.5 -48t0 -56t-0.5 -47h45q0 4 -0.5 46.5t0 57t2.5 47t6.5 55.5t11.5 44l358 981h287l-528 -1434h-320z" />
<glyph unicode="W" horiz-adv-x="1974" d="M33 1434h260l217 -924q6 -25 8 -60t1.5 -61t-3 -67t-2.5 -58l45 -2q-1 19 -1 76v19q0 45 2 79q2 41 11 74l260 924h308l264 -924q9 -33 11 -74q2 -34 2 -79v-19q0 -57 -1 -76l47 2q0 11 -4 73q-3 48 -2 83v18q1 40 8 72l217 924h261l-355 -1434h-311l-258 1047 q-8 35 -10 77q-1 21 -1 48q0 26 1 58q2 64 2 79h-47q0 -19 1 -62q2 -43 2 -71v-8q0 -25 -3 -57q-3 -37 -9 -64l-256 -1047h-309z" />
<glyph unicode="X" horiz-adv-x="1421" d="M47 0l502 750l-471 684h309l266 -428q6 -11 11 -22.5t8 -26.5t4.5 -25t2.5 -29.5t1 -25.5v-29v-25l45 -2q0 5 0.5 25.5t1 28.5t2 26.5t3.5 29t5.5 25.5t8.5 26.5t12 21.5l280 430h305l-479 -711l510 -723h-307l-309 475q-15 23 -22.5 59t-8 55.5t-0.5 65.5h-47 q0 -46 -0.5 -65.5t-7.5 -56t-21 -60.5l-303 -473h-301z" />
<glyph unicode="Y" horiz-adv-x="1366" d="M39 1434h287l297 -449q43 -67 43 -219h47q0 157 39 219l286 449h287l-500 -756v-664h-268v664z" />
<glyph unicode="Z" horiz-adv-x="1220" d="M92 0v236l625 854q10 14 24.5 27.5t26.5 23t33.5 22.5t31.5 18.5t35 19t31 16.5l-20 40q-135 -73 -209 -73h-557v250h1015v-250h-2l-622 -840q-20 -26 -56.5 -52.5t-58.5 -37.5l-70 -35l21 -43q141 74 211 74h577v-250h-1036z" />
<glyph unicode="[" horiz-adv-x="954" d="M205 -332v1766h571v-236h-303v-1294h303v-236h-571z" />
<glyph unicode="\" horiz-adv-x="755" d="M72 1464h256l364 -1464h-256z" />
<glyph unicode="]" horiz-adv-x="1001" d="M215 -96h301v1294h-301v236h569v-1766h-569v236z" />
<glyph unicode="^" horiz-adv-x="1171" d="M70 680l399 768l-2 4h238v-4l397 -768h-242l-248 485q-7 14 -8 32.5t1.5 43.5t2.5 35h-45q0 -10 2.5 -35t1.5 -43.5t-8 -32.5l-248 -485h-241z" />
<glyph unicode="_" horiz-adv-x="968" d="M18 -100h910v-213h-910v213z" />
<glyph unicode="a" horiz-adv-x="1316" d="M57 518q0 230 147 383.5t374 153.5q200 0 317 -127q19 -20 31.5 -51.5t24 -76.5t16.5 -61l43 15q-5 18 -21 58.5t-25.5 73.5t-9.5 60l-2 78h252v-1024h-252l2 84q0 27 9 60t25.5 74.5t21.5 57.5l-45 15q-4 -14 -15 -59.5t-23 -77t-30 -52.5q-122 -135 -319 -135 q-149 0 -269 74t-186 199.5t-66 277.5zM309 518q0 -132 79 -224.5t204 -92.5q122 0 202 93t85 224q0 138 -75 220.5t-212 82.5q-126 0 -204.5 -85.5t-78.5 -217.5z" />
<glyph unicode="b" horiz-adv-x="1316" d="M119 2v1485l250 -2v-541q0 -27 -8.5 -58t-26 -77t-21.5 -57l45 -15q4 13 13 45.5t15 53.5t18.5 46.5t27.5 41.5q124 131 316 131q143 0 260 -75t183 -200t69 -272v-18q0 -217 -140 -367q-146 -156 -375 -156q-194 0 -315 127q-15 15 -27 40t-18 46t-14.5 54t-12.5 47 l-43 -15q5 -16 20.5 -58t24.5 -74.5t9 -59.5v-74zM416 504q0 -133 79 -217t218 -84t218 84t79 217q0 136 -79.5 226.5t-217.5 90.5t-217.5 -90.5t-79.5 -226.5z" />
<glyph unicode="c" horiz-adv-x="1220" d="M63 518q0 248 151 392.5t402 144.5q122 0 223.5 -35.5t166.5 -93.5t103 -128t46 -143h-268q-4 13 -19 35t-46 53.5t-87 53.5t-125 22q-138 0 -217.5 -80.5t-81.5 -218.5q0 -138 84 -226t223 -89q68 0 123.5 22t86 53t46.5 54.5t19 36.5h268q-13 -78 -52 -148t-103.5 -128 t-162.5 -92.5t-216 -35.5q-255 2 -409.5 152t-154.5 399z" />
<glyph unicode="d" horiz-adv-x="1312" d="M57 508q3 147 68 272t181.5 200t260.5 75q195 0 318 -133q19 -19 32.5 -49.5t26.5 -77t17 -58.5l43 15q-4 11 -21.5 57t-26 77t-8.5 58v541l252 2v-1485l-252 -2v74q0 27 8.5 58t26 77t21.5 57l-46 15q-3 -10 -15 -59.5t-24.5 -79t-31.5 -48.5q-121 -127 -318 -127 q-150 0 -269 72q-118 71 -182 195q-61 118 -61 261v13zM307 504q0 -134 77.5 -217.5t217.5 -83.5q141 0 221 84t80 217q0 136 -80.5 226.5t-220.5 90.5q-139 0 -217 -90t-78 -227z" />
<glyph unicode="e" horiz-adv-x="1280" d="M57 518q0 151 74.5 273.5t210 193t305.5 70.5q130 0 240 -43.5t183 -117.5q74 -74 114 -170q40 -94 39 -197v-5q0 -70 -2 -88l-863 2q0 -44 20 -87.5t57.5 -81.5t99 -61.5t137.5 -23.5q95 0 159.5 34t81.5 77h287q-10 -35 -33 -75t-65.5 -85.5t-97.5 -81.5t-135.5 -60 t-172.5 -24q-152 0 -274.5 43t-201.5 118t-121 175t-42 215zM358 604h572q0 109 -75.5 180.5t-201.5 71.5q-127 0 -211 -76t-84 -176z" />
<glyph unicode="f" horiz-adv-x="854" d="M57 825v199h203v86q3 144 89.5 234t205.5 90h238v-203h-148q-135 0 -135 -121v-86h256v-199h-256v-819h-250v819h-203z" />
<glyph unicode="g" horiz-adv-x="1378" d="M90 518q0 230 149 383.5t379 153.5q211 0 334 -129q19 -19 32.5 -50.5t26 -74.5t19.5 -60l43 15q-5 13 -18.5 44.5t-21 51t-15 46.5t-8.5 48l-4 78h251v-1053q-1 -108 -33.5 -193.5t-100.5 -152t-182.5 -102t-270.5 -35.5q-254 0 -395.5 111.5t-155.5 306.5h266 q18 -103 88 -144t184 -41q177 0 263 72.5t86 206.5q0 59 2 88q2 26 12.5 57.5t27.5 71.5t23 55l-43 17q-5 -15 -17 -59t-24.5 -74.5t-30.5 -49.5q-129 -139 -338 -139q-151 0 -272.5 74t-188.5 199.5t-67 277.5zM340 508q0 -132 81 -215.5t228 -83.5q141 0 221 75t88 199v52 q-8 123 -88.5 199.5t-220.5 76.5q-147 0 -228 -84.5t-81 -218.5z" />
<glyph unicode="h" horiz-adv-x="1249" d="M119 0v1487h250v-492q0 -17 -2 -34.5t-7 -38t-9 -35.5t-12.5 -39t-12.5 -34.5t-14.5 -37.5t-12.5 -33l43 -16q4 11 21 58.5t26.5 70.5t29 55t40.5 50q62 53 135.5 73.5t179.5 20.5q163 0 267 -92t104 -261v-702h-252v522q0 147 -54 216t-167 69q-132 0 -217.5 -72.5 t-85.5 -212.5v-522h-250z" />
<glyph unicode="i" horiz-adv-x="497" d="M113 1178v256h272v-256h-272zM127 0v1024h248v-1024h-248z" />
<glyph unicode="j" horiz-adv-x="657" d="M63 -84h103q83 0 107 39.5t24 140.5v928h235v-1024q0 -317 -323 -317h-146v233zM287 1208v226h256v-226h-256z" />
<glyph unicode="k" horiz-adv-x="1173" d="M113 0v1485h252v-672q0 -35 -13.5 -81t-25 -72.5t-35.5 -77.5l43 -19q24 54 35 78t37.5 65t52.5 64l289 252h313l-430 -395l536 -629h-313l-393 481l-101 -88l5 -391h-252z" />
<glyph unicode="l" horiz-adv-x="720" d="M133 248v1237h252v-1141q0 -62 29 -86.5t100 -24.5h127v-233h-152q-174 0 -265 64t-91 184z" />
<glyph unicode="m" horiz-adv-x="1824" d="M113 0v1024h252v-12q0 -32 -7.5 -74t-15 -68.5t-23.5 -79t-20 -65.5l43 -14q6 18 22.5 88t35 114.5t46.5 71.5q39 39 90.5 54.5t131.5 15.5q152 0 227 -64q14 -12 24 -27.5t14 -37.5t6.5 -38.5t0 -45t-3.5 -41.5t-6 -45t-6 -39l45 -6q14 88 37 152.5t71 101.5 q121 90 250 90q167 0 273 -92t106 -261v-702h-252v551q0 156 -48.5 228.5t-150.5 72.5q-109 0 -158.5 -72.5t-49.5 -228.5v-551h-252v551q0 156 -50 228.5t-155 72.5q-113 0 -169 -73.5t-56 -227.5v-551h-252z" />
<glyph unicode="n" horiz-adv-x="1257" d="M119 0v1024h250v-16q0 -38 -14 -91t-24 -79t-34 -88l43 -19q5 13 22.5 60.5t27.5 72t31 57t44 50.5q61 49 132 66.5t177 17.5q163 0 267 -92t104 -261v-702h-252v522q0 147 -54 216t-167 69q-132 0 -217.5 -72.5t-85.5 -212.5v-522h-250z" />
<glyph unicode="o" horiz-adv-x="1288" d="M74 514q0 247 159 394t424 147q263 0 424.5 -151.5t161.5 -389.5q0 -240 -161.5 -393.5t-424.5 -153.5q-264 0 -423.5 149.5t-159.5 397.5zM340 514q0 -135 78.5 -220t238.5 -85q161 0 240.5 85t79.5 220t-79 217t-241 82t-239.5 -82t-77.5 -217z" />
<glyph unicode="p" horiz-adv-x="1310" d="M119 -514v1536l252 2v-74q0 -27 -8.5 -58t-26 -77t-21.5 -57l43 -15q5 15 17 60.5t24.5 76.5t30.5 50q121 127 320 127q150 0 269 -72t183 -195q60 -118 60 -261v-13q-4 -148 -69 -272t-181.5 -199.5t-261.5 -75.5q-192 0 -318 133q-19 19 -32 50t-25 76t-17 59l-43 -15 q5 -18 21 -58.5t25.5 -73.5t9.5 -60v-592zM416 520q0 -136 80.5 -226.5t218.5 -90.5q139 0 217 90t78 227q0 134 -77.5 218.5t-217.5 84.5q-139 0 -219 -85t-80 -218z" />
<glyph unicode="q" horiz-adv-x="1347" d="M86 516v13q0 143 60 261q64 123 183 195t269 72q196 0 317 -127q15 -15 27 -40t18 -46t14.5 -54t12.5 -47l43 15q-5 16 -20.5 58.5t-24 74.5t-8.5 59v74l252 -2v-1536l-252 2v592q0 28 8 58t26 77.5t21 56.5l-43 15q-4 -12 -17 -58.5t-26.5 -77t-32.5 -49.5 q-123 -133 -317 -133q-144 0 -260.5 75t-181.5 200t-68 272zM336 520q0 -137 78 -227t217 -90q140 0 220.5 90.5t80.5 226.5q0 133 -80 218t-221 85q-140 0 -217.5 -84.5t-77.5 -218.5z" />
<glyph unicode="r" horiz-adv-x="950" d="M119 0v1024h250v-31q0 -11 -1.5 -24t-3 -24t-5.5 -26t-7 -24.5t-9 -26t-8.5 -24t-10 -25.5t-10 -23.5t-10.5 -24t-9 -21.5l43 -19q4 10 18 44.5t22.5 52.5t23 45t30 46.5t33.5 32.5q79 61 171.5 82t250.5 21v-234q-80 0 -152 -11.5t-140 -39t-117 -69t-79 -107 t-30 -148.5v-446h-250z" />
<glyph unicode="s" horiz-adv-x="1124" d="M61 348h252q0 -48 80.5 -96.5t212.5 -48.5q109 0 158 32t49 80q0 40 -41 67.5t-106.5 43t-145 29t-158.5 34t-144.5 50t-106.5 84t-41 129.5q0 129 123 216t354 87q104 0 190.5 -20t142.5 -52t94.5 -75t55.5 -86.5t17 -88.5h-252q0 51 -71 84t-192 33q-91 0 -150.5 -24.5 t-59.5 -71.5q0 -26 32 -43.5t84.5 -26t119.5 -19t137.5 -21.5t137.5 -34.5t119.5 -56.5t84.5 -89.5t32 -131.5q0 -76 -30 -141t-88.5 -115.5t-153.5 -79.5t-217 -29q-126 0 -228.5 35t-164 91.5t-94 122t-32.5 132.5z" />
<glyph unicode="t" horiz-adv-x="874" d="M78 805v219h205v387h249v-387h267v-219h-267v-461q0 -63 31 -87t105 -24h120v-233h-247q-69 0 -121 30t-81 81t-42.5 109.5t-13.5 123.5v461h-205z" />
<glyph unicode="u" horiz-adv-x="1236" d="M104 322v702h252v-541q0 -152 62.5 -222.5t171.5 -70.5q120 0 196 74t76 219v541h250v-1024h-250v41q1 24 11 54t25.5 65.5t21.5 52.5l-43 16q-3 -9 -13 -41t-16 -49t-18.5 -39.5t-26.5 -36.5q-60 -58 -124.5 -76t-178.5 -18q-103 0 -191.5 39t-146.5 121t-58 193z" />
<glyph unicode="v" horiz-adv-x="1263" d="M47 1024h272l261 -602q5 -12 9 -24.5t7 -28t5 -27t3.5 -30.5t2 -28t1 -30.5t0.5 -28v-29.5v-26h47v34v39.5t1 35.5t2.5 40t4.5 34t8 37.5t11 31.5l260 602h275l-451 -1024h-260z" />
<glyph unicode="w" horiz-adv-x="1767" d="M37 1024h260l201 -664q5 -30 4.5 -48.5t-3.5 -52.5t-3 -50h45q1 16 -1.5 46.5t-2.5 57.5t6 47l207 664h266l209 -664q6 -20 6 -46.5t-3 -58.5t-3 -46h47q0 16 -3 50t-3.5 52.5t4.5 48.5l200 664h261l-357 -1024h-276l-195 752q-5 29 -4 48t4.5 52t3.5 49h-47 q0 -16 3.5 -49t4.5 -52t-4 -48l-196 -752h-275z" />
<glyph unicode="x" horiz-adv-x="1142" d="M35 0l387 543l-363 481h285l178 -264q8 -12 12.5 -25.5t6.5 -31.5t2.5 -28t0 -33t-0.5 -28l45 -2q0 8 0.5 36.5t1.5 42t6.5 34.5t15.5 35l187 264h284l-368 -502l393 -522h-285l-211 307q-9 14 -14.5 36t-7 35t-2 44.5t-0.5 36.5h-45q0 -5 0.5 -30t0 -35.5t-2.5 -29.5 t-6.5 -33t-12.5 -26l-203 -305h-284z" />
<glyph unicode="y" horiz-adv-x="1361" d="M63 1024h308l266 -573q35 -74 35 -261h47q0 187 35 261l266 573h307l-498 -1022q-10 -21 -41 -81.5t-49 -98.5q-77 -167 -158.5 -250.5t-201.5 -83.5h-279v250h162q45 0 78.5 11t60 36.5t45 53t43.5 75.5l64 123z" />
<glyph unicode="z" horiz-adv-x="1140" d="M82 0v217l528 520q15 15 37.5 25.5t53 21t42.5 15.5l-16 41q-13 -5 -42 -19t-52.5 -22t-44.5 -8h-494v233h944v-233l-526 -504q-12 -11 -31 -20.5t-33.5 -15t-39.5 -13t-35 -11.5l16 -43q14 5 44 19t54 22t45 8h529v-233h-979z" />
<glyph unicode="{" horiz-adv-x="831" d="M90 514v236h115q24 0 40.5 18.5t25.5 52t13.5 71.5t5 87t-0.5 87.5t-2.5 84t-1.5 66.5q0 74 73.5 137.5t173.5 97t191 33.5l2 -213q-106 0 -166.5 -44.5t-60.5 -127.5v-285q0 -57 -32 -94.5t-77.5 -51.5t-101.5 -14l-2 -45q123 -4 174 -65q18 -24 27 -53t10.5 -49.5 t1.5 -59.5v-229q0 -85 60.5 -129.5t166.5 -44.5l-2 -211q-89 0 -190.5 36t-174.5 99.5t-73 132.5q0 21 1.5 67t2.5 85.5t0.5 89.5t-5 89t-13 73.5t-25.5 53.5t-41 19h-115z" />
<glyph unicode="|" horiz-adv-x="1128" d="M438 -512v2038h252v-2038h-252z" />
<glyph unicode="}" horiz-adv-x="833" d="M106 -20q106 0 167 44.5t61 129.5v229q0 39 1.5 59.5t10.5 49.5t27 53q51 61 172 65v45q-56 0 -101.5 14t-77.5 51.5t-32 94.5v285q0 83 -61 127.5t-167 44.5l3 213q90 0 190 -33.5t174 -97t74 -137.5q0 -21 -1.5 -66.5t-2.5 -84t-1 -87.5t5 -87t13.5 -71.5t25 -52 t39.5 -18.5h116v-236h-116q-23 0 -39.5 -19t-25 -53.5t-13.5 -73.5t-5 -89t1 -89.5t2.5 -85.5t1.5 -67q0 -69 -73.5 -132.5t-175 -99.5t-189.5 -36z" />
<glyph unicode="&#xad;" d="M172 479v223h578v-223h-578z" />
<glyph unicode="&#x2000;" horiz-adv-x="768" />
<glyph unicode="&#x2001;" horiz-adv-x="1536" />
<glyph unicode="&#x2002;" horiz-adv-x="768" />
<glyph unicode="&#x2003;" horiz-adv-x="1536" />
<glyph unicode="&#x2004;" horiz-adv-x="512" />
<glyph unicode="&#x2005;" horiz-adv-x="384" />
<glyph unicode="&#x2006;" horiz-adv-x="256" />
<glyph unicode="&#x2007;" horiz-adv-x="256" />
<glyph unicode="&#x2008;" horiz-adv-x="192" />
<glyph unicode="&#x2009;" horiz-adv-x="307" />
<glyph unicode="&#x200a;" horiz-adv-x="85" />
<glyph unicode="&#x2010;" d="M172 479v223h578v-223h-578z" />
<glyph unicode="&#x2011;" d="M172 479v223h578v-223h-578z" />
<glyph unicode="&#x2012;" d="M172 479v223h578v-223h-578z" />
<glyph unicode="&#x2013;" horiz-adv-x="1024" d="M125 475v154h856v-154h-856z" />
<glyph unicode="&#x2014;" horiz-adv-x="2350" d="M172 479v223h2048v-223h-2048z" />
<glyph unicode="&#x201c;" horiz-adv-x="737" d="M96 1024v201q-2 106 57 181t158 75v-113q-90 0 -106 -94q-2 -9 -6 -17.5t-11.5 -17t-12 -13.5t-15.5 -15t-15 -13l31 -35q4 4 14 15t15.5 16t14.5 12t18 10t18 3h66v-195h-226zM389 1024v201q0 107 58.5 181.5t158.5 74.5v-113q-90 0 -106 -94q-2 -9 -6 -17.5t-11.5 -17 t-12 -13.5t-15.5 -15t-15 -13l31 -35q4 4 14 15t15.5 16t14.5 12t18 10t18 3h63v-195h-225z" />
<glyph unicode="&#x201d;" horiz-adv-x="710" d="M88 1284v197h225v-203q0 -105 -58.5 -179.5t-158.5 -74.5v113q91 0 107 92q2 12 9.5 24t12.5 18t19.5 19.5t17.5 16.5l-31 32q-6 -5 -18 -17.5t-19 -19t-18.5 -12.5t-23.5 -6h-64zM383 1284v197h225v-203q0 -105 -58.5 -179.5t-158.5 -74.5v113q91 0 107 92q1 7 3.5 13.5 t7 13t7 10.5t9.5 11l10 10t11.5 10.5t10.5 9.5l-31 32q-5 -5 -17.5 -18t-20 -19t-19 -12t-23.5 -6h-63z" />
<glyph unicode="&#x2022;" horiz-adv-x="770" d="M252 526v445h446v-445h-446z" />
<glyph unicode="&#x202f;" horiz-adv-x="307" />
<glyph unicode="&#x205f;" horiz-adv-x="384" />
<glyph unicode="&#x25fc;" horiz-adv-x="1024" d="M0 0v1024h1024v-1024h-1024z" />
</font>
</defs>
</svg>
