<svg width="1203" height="1473" viewBox="0 0 1203 1473" fill="none" xmlns="http://www.w3.org/2000/svg">
<g opacity="0.4" filter="url(#filter0_f_204_650)">
<rect width="308.644" height="244.105" rx="122.052" transform="matrix(0.866025 0.5 -0.866025 0.5 873.598 522.793)" fill="#A3A2A1"/>
</g>
<g opacity="0.4" filter="url(#filter1_f_204_650)">
<rect width="638.247" height="288.089" rx="144.044" transform="matrix(0.866025 0.5 -0.866025 0.5 767.505 484.832)" fill="#A3A2A1"/>
</g>
<rect width="156.385" height="7.10196" transform="matrix(0.866025 0.5 0 1 581.559 596.326)" fill="#93AAFC"/>
<rect width="156.385" height="7.10196" transform="matrix(0.866025 -0.5 0 1 866.818 674.519)" fill="#6580E1"/>
<path d="M550.529 553.075C550.529 569.966 562.387 585.257 581.559 596.326V603.428C562.387 592.359 550.529 577.068 550.529 560.177V553.075Z" fill="#93AAFC"/>
<path d="M716.993 674.519C758.366 698.405 825.446 698.405 866.819 674.519V681.621C825.446 705.507 758.366 705.507 716.993 681.621V674.519Z" fill="#6580E1"/>
<path d="M1033.28 553.075C1033.28 569.966 1021.42 585.257 1002.25 596.326V603.428C1021.42 592.359 1033.28 577.068 1033.28 560.177V553.075Z" fill="#6580E1"/>
<rect width="329.389" height="329.389" rx="164.694" transform="matrix(0.866025 0.5 -0.866025 0.5 791.904 388.38)" fill="url(#paint0_radial_204_650)"/>
<rect width="329.389" height="329.389" rx="164.694" transform="matrix(0.866025 0.5 -0.866025 0.5 791.904 388.38)" fill="url(#paint1_radial_204_650)" fill-opacity="0.2"/>
<mask id="mask0_204_650" style="mask-type:alpha" maskUnits="userSpaceOnUse" x="590" y="436" width="404" height="234">
<rect width="329.389" height="329.389" rx="164.694" transform="matrix(0.866025 0.5 -0.866025 0.5 791.904 388.38)" fill="url(#paint2_radial_204_650)"/>
<rect width="329.389" height="329.389" rx="164.694" transform="matrix(0.866025 0.5 -0.866025 0.5 791.904 388.38)" fill="url(#paint3_radial_204_650)" fill-opacity="0.2"/>
</mask>
<g mask="url(#mask0_204_650)">
<g opacity="0.6" filter="url(#filter2_f_204_650)">
<rect width="279.811" height="227.536" rx="113.768" transform="matrix(0.866025 0.5 -0.866025 0.5 792.962 453.231)" fill="#9C9C9C"/>
</g>
</g>
<rect width="156.385" height="42.6118" transform="matrix(0.866025 0.5 0 1 581.559 596.325)" fill="#E0DDDE"/>
<rect width="156.385" height="42.6118" transform="matrix(0.866025 -0.5 0 1 866.817 674.518)" fill="#BEB9B6"/>
<rect width="156.385" height="42.6118" transform="matrix(0.866025 -0.5 0 1 866.817 674.518)" fill="url(#paint4_radial_204_650)" fill-opacity="0.2"/>
<path d="M550.528 553.074C550.528 569.965 562.386 585.256 581.558 596.325V638.937C562.386 627.868 550.528 612.577 550.528 595.686V553.074Z" fill="url(#paint5_linear_204_650)"/>
<path d="M716.992 674.518C758.365 698.404 825.445 698.404 866.818 674.518V717.129C825.445 741.016 758.365 741.016 716.992 717.129V674.518Z" fill="url(#paint6_linear_204_650)"/>
<path d="M716.992 674.518C758.365 698.404 825.445 698.404 866.818 674.518V717.129C825.445 741.016 758.365 741.016 716.992 717.129V674.518Z" fill="url(#paint7_radial_204_650)" fill-opacity="0.2"/>
<path d="M1033.28 553.074C1033.28 569.965 1021.42 585.256 1002.25 596.325V638.937C1021.42 627.868 1033.28 612.577 1033.28 595.686V553.074Z" fill="url(#paint8_linear_204_650)"/>
<rect width="242.047" height="242.047" rx="121.024" transform="matrix(0.866025 0.5 -0.866025 0.5 792.657 387.545)" fill="#D9D9D9"/>
<rect width="242.047" height="242.047" rx="121.024" transform="matrix(0.866025 0.5 -0.866025 0.5 792.657 387.545)" fill="url(#paint9_radial_204_650)"/>
<rect width="242.047" height="242.047" rx="121.024" transform="matrix(0.866025 0.5 -0.866025 0.5 792.657 387.545)" fill="url(#paint10_radial_204_650)" fill-opacity="0.2"/>
<rect width="242.047" height="242.047" rx="121.024" transform="matrix(0.866025 0.5 -0.866025 0.5 792.657 387.545)" fill="url(#paint11_radial_204_650)" fill-opacity="0.2"/>
<mask id="mask1_204_650" style="mask-type:alpha" maskUnits="userSpaceOnUse" x="644" y="422" width="297" height="173">
<rect width="242.047" height="242.047" rx="121.024" transform="matrix(0.866025 0.5 -0.866025 0.5 792.657 387.545)" fill="#D9D9D9"/>
<rect width="242.047" height="242.047" rx="121.024" transform="matrix(0.866025 0.5 -0.866025 0.5 792.657 387.545)" fill="url(#paint12_radial_204_650)"/>
</mask>
<g mask="url(#mask1_204_650)">
<g opacity="0.6" filter="url(#filter3_f_204_650)">
<rect width="196.088" height="159.455" rx="79.7274" transform="matrix(0.866025 0.5 -0.866025 0.5 795.35 440.368)" fill="#A3A2A1"/>
</g>
<g opacity="0.5" filter="url(#filter4_f_204_650)">
<rect width="157.611" height="128.166" rx="64.0831" transform="matrix(0.866025 0.5 -0.866025 0.5 781.138 448.456)" fill="#8D8A87"/>
</g>
</g>
<rect width="155.626" height="155.626" rx="77.8131" transform="matrix(0.866025 0.5 -0.866025 0.5 792.033 430.673)" fill="url(#paint13_radial_204_650)"/>
<mask id="mask2_204_650" style="mask-type:alpha" maskUnits="userSpaceOnUse" x="696" y="453" width="192" height="111">
<rect width="155.626" height="155.626" rx="77.8131" transform="matrix(0.866025 0.5 -0.866025 0.5 792.033 430.673)" fill="#ABA4A0"/>
</mask>
<g mask="url(#mask2_204_650)">
<path d="M888.354 522.085C888.354 506.834 877.67 493.027 860.394 483.032V460.502C877.67 470.496 888.354 484.303 888.354 499.555V522.085Z" fill="url(#paint14_radial_204_650)"/>
<path d="M860.395 483.153C823.011 461.558 762.401 461.558 725.018 483.153V460.595C762.401 439 823.011 439 860.395 460.595V483.153Z" fill="url(#paint15_radial_204_650)"/>
<path d="M697.058 522.085C697.058 506.834 707.743 493.027 725.019 483.032V460.502C707.743 470.496 697.058 484.303 697.058 499.555V522.085Z" fill="url(#paint16_radial_204_650)"/>
<g filter="url(#filter5_f_204_650)">
<rect width="138.504" height="138.504" rx="69.2521" transform="matrix(0.866025 0.5 -0.866025 0.5 799.27 457.419)" fill="url(#paint17_radial_204_650)"/>
</g>
<g filter="url(#filter6_f_204_650)">
<rect width="125.901" height="125.901" rx="62.9503" transform="matrix(0.866025 0.5 -0.866025 0.5 796.88 452.404)" fill="url(#paint18_radial_204_650)"/>
</g>
</g>
<path d="M644.434 508.499C644.434 532.13 661.024 553.525 687.847 569.011V603.921C661.024 588.435 644.434 567.041 644.434 543.41V508.499Z" fill="#93AAFC"/>
<path d="M644.434 508.499C644.434 532.13 661.024 553.525 687.847 569.011V603.921C661.024 588.435 644.434 567.041 644.434 543.41V508.499Z" fill="url(#paint19_linear_204_650)"/>
<path d="M687.848 569.011C745.732 602.43 839.582 602.431 897.467 569.011V603.921C839.582 637.341 745.732 637.341 687.848 603.921V569.011Z" fill="#6580E1"/>
<path d="M687.848 569.011C745.732 602.43 839.582 602.431 897.467 569.011V603.921C839.582 637.341 745.732 637.341 687.848 603.921V569.011Z" fill="#BEB9B6"/>
<path d="M687.848 569.011C745.732 602.43 839.582 602.431 897.467 569.011V603.921C839.582 637.341 745.732 637.341 687.848 603.921V569.011Z" fill="url(#paint20_radial_204_650)" fill-opacity="0.2"/>
<path d="M940.88 508.499C940.88 532.13 924.29 553.525 897.467 569.011V603.921C924.29 588.435 940.88 567.041 940.88 543.41V508.499Z" fill="#6580E1"/>
<path d="M940.88 508.499C940.88 532.13 924.29 553.525 897.467 569.011V603.921C924.29 588.435 940.88 567.041 940.88 543.41V508.499Z" fill="url(#paint21_linear_204_650)"/>
<rect width="132.409" height="132.409" rx="66.2044" transform="matrix(0.866025 0.5 -0.866025 0.5 792.656 405.264)" fill="#D9D9D9"/>
<rect width="132.409" height="132.409" rx="66.2044" transform="matrix(0.866025 0.5 -0.866025 0.5 792.656 405.264)" fill="url(#paint22_radial_204_650)"/>
<rect width="132.409" height="132.409" rx="66.2044" transform="matrix(0.866025 0.5 -0.866025 0.5 792.656 405.264)" fill="url(#paint23_radial_204_650)" fill-opacity="0.2"/>
<rect width="132.409" height="132.409" rx="66.2044" transform="matrix(0.866025 0.5 -0.866025 0.5 792.656 405.264)" fill="url(#paint24_radial_204_650)" fill-opacity="0.2"/>
<rect width="79.3155" height="79.3155" rx="39.6578" transform="matrix(-0.866025 0.5 0.866025 0.5 791.977 431.843)" fill="#D9D9D9"/>
<rect width="79.3155" height="79.3155" rx="39.6578" transform="matrix(-0.866025 0.5 0.866025 0.5 791.977 431.843)" fill="url(#paint25_radial_204_650)"/>
<mask id="mask3_204_650" style="mask-type:alpha" maskUnits="userSpaceOnUse" x="743" y="443" width="98" height="57">
<rect width="79.3155" height="79.3155" rx="39.6578" transform="matrix(-0.866025 0.5 0.866025 0.5 791.976 431.843)" fill="#D9D9D9"/>
<rect width="79.3155" height="79.3155" rx="39.6578" transform="matrix(-0.866025 0.5 0.866025 0.5 791.976 431.843)" fill="url(#paint26_radial_204_650)"/>
</mask>
<g mask="url(#mask3_204_650)">
<g opacity="0.4" filter="url(#filter7_f_204_650)">
<rect width="31.5922" height="25.6901" rx="12.8451" transform="matrix(0.866025 0.5 -0.866025 0.5 787.438 459.617)" fill="url(#paint27_radial_204_650)"/>
</g>
<g opacity="0.5" filter="url(#filter8_f_204_650)">
<rect width="15.1523" height="12.3216" rx="6.16078" transform="matrix(0.866025 0.5 -0.866025 0.5 790.902 467.758)" fill="#F8CF61"/>
</g>
<g filter="url(#filter9_f_204_650)">
<path fill-rule="evenodd" clip-rule="evenodd" d="M837.985 460.93C817.182 447.873 783.453 447.873 762.65 460.93V447.29C783.453 434.233 817.182 434.233 837.985 447.29V460.93ZM853.672 484.751C853.672 475.495 847.677 467.114 837.985 461.048V447.374C847.677 453.44 853.672 461.82 853.672 471.076V484.751ZM762.65 461.048C752.958 467.114 746.963 475.495 746.963 484.751V471.076C746.963 461.82 752.958 453.44 762.65 447.374V461.048Z" fill="#A6A4A3"/>
</g>
<path d="M840.754 478.553C840.754 470.095 835.276 462.437 826.42 456.894V444.399C835.276 449.942 840.754 457.599 840.754 466.057V478.553Z" fill="#93AAFC"/>
<path d="M840.754 478.553C840.754 470.095 835.276 462.437 826.42 456.894V444.399C835.276 449.942 840.754 457.599 840.754 466.057V478.553Z" fill="url(#paint28_linear_204_650)"/>
<path d="M826.419 456.786C807.41 444.855 776.59 444.855 757.58 456.786V444.322C776.59 432.391 807.41 432.391 826.419 444.322V456.786Z" fill="#6580E1"/>
<path d="M826.419 456.786C807.41 444.855 776.59 444.855 757.58 456.786V444.322C776.59 432.391 807.41 432.391 826.419 444.322V456.786Z" fill="#BEB9B6"/>
<path d="M826.419 456.786C807.41 444.855 776.59 444.855 757.58 456.786V444.322C776.59 432.391 807.41 432.391 826.419 444.322V456.786Z" fill="url(#paint29_radial_204_650)" fill-opacity="0.2"/>
<path d="M743.246 478.553C743.246 470.095 748.724 462.437 757.58 456.894V444.399C748.724 449.942 743.246 457.599 743.246 466.057V478.553Z" fill="#6580E1"/>
<path d="M743.246 478.553C743.246 470.095 748.724 462.437 757.58 456.894V444.399C748.724 449.942 743.246 457.599 743.246 466.057V478.553Z" fill="url(#paint30_linear_204_650)"/>
</g>
<path d="M711.572 471.469C711.572 484.396 720.648 496.099 735.321 504.571V536.4C720.648 527.928 711.572 516.225 711.572 503.298V471.469Z" fill="#93AAFC"/>
<path d="M711.572 471.469C711.572 484.396 720.648 496.099 735.321 504.571V536.4C720.648 527.928 711.572 516.225 711.572 503.298V471.469Z" fill="url(#paint31_linear_204_650)"/>
<path d="M735.321 504.57C766.986 522.852 818.326 522.852 849.991 504.57V536.399C818.326 554.681 766.986 554.681 735.321 536.399V504.57Z" fill="#6580E1"/>
<path d="M735.321 504.57C766.986 522.852 818.326 522.852 849.991 504.57V536.399C818.326 554.681 766.986 554.681 735.321 536.399V504.57Z" fill="#BEB9B6"/>
<path d="M873.739 471.469C873.739 484.396 864.663 496.099 849.99 504.571V536.4C864.663 527.928 873.739 516.225 873.739 503.298V471.469Z" fill="#6580E1"/>
<path d="M873.739 471.469C873.739 484.396 864.663 496.099 849.99 504.571V536.4C864.663 527.928 873.739 516.225 873.739 503.298V471.469Z" fill="url(#paint32_linear_204_650)"/>
<path fill-rule="evenodd" clip-rule="evenodd" d="M711.572 471.469C711.572 484.396 720.648 496.099 735.321 504.571V536.4C720.648 527.928 711.572 516.225 711.572 503.298V471.469ZM849.991 536.4C864.664 527.928 873.739 516.225 873.739 503.298V471.469C873.739 484.396 864.663 496.099 849.99 504.571V504.572C818.325 522.853 766.986 522.853 735.321 504.571V536.4C766.986 554.682 818.326 554.682 849.991 536.4V536.4Z" fill="url(#paint33_radial_204_650)"/>
<g style="mix-blend-mode:color" opacity="0.4" filter="url(#filter10_f_204_650)">
<rect width="103.461" height="101.169" rx="50.5847" transform="matrix(0.988461 0.151474 -0.988461 0.151474 792.638 462.094)" fill="url(#paint34_radial_204_650)"/>
</g>
<rect width="77.9162" height="77.9162" transform="matrix(0.866025 -0.5 2.58096e-08 1 731.506 362.327)" fill="#D9D9D9"/>
<rect width="77.9162" height="77.9162" transform="matrix(0.866025 -0.5 2.58096e-08 1 731.506 362.327)" fill="url(#paint35_linear_204_650)"/>
<rect width="77.9162" height="74.612" transform="matrix(0.866025 -0.5 0.866025 0.5 731.506 440.244)" fill="#93AAFC"/>
<rect width="77.9162" height="74.612" transform="matrix(0.866025 -0.5 0.866025 0.5 731.506 440.244)" fill="url(#paint36_linear_204_650)"/>
<rect width="77.9162" height="74.612" transform="matrix(0.866025 -0.5 0.866025 0.5 731.506 440.244)" fill="url(#paint37_linear_204_650)"/>
<rect width="77.9162" height="74.612" transform="matrix(-2.58096e-08 -1 0.866025 0.5 798.983 401.285)" fill="#6580E1"/>
<rect width="77.9162" height="74.612" transform="matrix(-2.58096e-08 -1 0.866025 0.5 798.983 401.285)" fill="url(#paint38_linear_204_650)"/>
<rect width="77.9162" height="74.612" transform="matrix(-2.58096e-08 -1 0.866025 0.5 798.983 401.285)" fill="url(#paint39_linear_204_650)"/>
<g filter="url(#filter11_i_204_650)">
<path fill-rule="evenodd" clip-rule="evenodd" d="M731.506 362.327L798.983 323.369L798.983 401.285L731.506 440.243L731.506 362.327ZM731.506 440.244L798.983 401.286L863.599 438.592L796.121 477.55L731.506 440.244ZM863.599 360.675L798.983 323.369L798.983 401.285L863.599 438.591L863.599 360.675Z" fill="url(#paint40_linear_204_650)" fill-opacity="0.2"/>
</g>
<defs>
<filter id="filter0_f_204_650" x="224.114" y="58.541" width="1354.86" height="1204.88" filterUnits="userSpaceOnUse" color-interpolation-filters="sRGB">
<feFlood flood-opacity="0" result="BackgroundImageFix"/>
<feBlend mode="normal" in="SourceGraphic" in2="BackgroundImageFix" result="shape"/>
<feGaussianBlur stdDeviation="250" result="effect1_foregroundBlur_204_650"/>
</filter>
<filter id="filter1_f_204_650" x="24.3253" y="-39.7411" width="1789.61" height="1512.31" filterUnits="userSpaceOnUse" color-interpolation-filters="sRGB">
<feFlood flood-opacity="0" result="BackgroundImageFix"/>
<feBlend mode="normal" in="SourceGraphic" in2="BackgroundImageFix" result="shape"/>
<feGaussianBlur stdDeviation="283.381" result="effect1_foregroundBlur_204_650"/>
</filter>
<filter id="filter2_f_204_650" x="507.211" y="340.14" width="616.773" height="479.857" filterUnits="userSpaceOnUse" color-interpolation-filters="sRGB">
<feFlood flood-opacity="0" result="BackgroundImageFix"/>
<feBlend mode="normal" in="SourceGraphic" in2="BackgroundImageFix" result="shape"/>
<feGaussianBlur stdDeviation="73.2068" result="effect1_foregroundBlur_204_650"/>
</filter>
<filter id="filter3_f_204_650" x="570.288" y="336.304" width="481.848" height="385.9" filterUnits="userSpaceOnUse" color-interpolation-filters="sRGB">
<feFlood flood-opacity="0" result="BackgroundImageFix"/>
<feBlend mode="normal" in="SourceGraphic" in2="BackgroundImageFix" result="shape"/>
<feGaussianBlur stdDeviation="63.7079" result="effect1_foregroundBlur_204_650"/>
</filter>
<filter id="filter4_f_204_650" x="575.236" y="339.81" width="437.302" height="360.181" filterUnits="userSpaceOnUse" color-interpolation-filters="sRGB">
<feFlood flood-opacity="0" result="BackgroundImageFix"/>
<feBlend mode="normal" in="SourceGraphic" in2="BackgroundImageFix" result="shape"/>
<feGaussianBlur stdDeviation="63.7079" result="effect1_foregroundBlur_204_650"/>
</filter>
<filter id="filter5_f_204_650" x="336.611" y="99.8604" width="925.316" height="853.621" filterUnits="userSpaceOnUse" color-interpolation-filters="sRGB">
<feFlood flood-opacity="0" result="BackgroundImageFix"/>
<feBlend mode="normal" in="SourceGraphic" in2="BackgroundImageFix" result="shape"/>
<feGaussianBlur stdDeviation="188.921" result="effect1_foregroundBlur_204_650"/>
</filter>
<filter id="filter6_f_204_650" x="530.861" y="281.921" width="532.037" height="466.867" filterUnits="userSpaceOnUse" color-interpolation-filters="sRGB">
<feFlood flood-opacity="0" result="BackgroundImageFix"/>
<feBlend mode="normal" in="SourceGraphic" in2="BackgroundImageFix" result="shape"/>
<feGaussianBlur stdDeviation="94.4604" result="effect1_foregroundBlur_204_650"/>
</filter>
<filter id="filter7_f_204_650" x="644.29" y="335.964" width="291.407" height="275.948" filterUnits="userSpaceOnUse" color-interpolation-filters="sRGB">
<feFlood flood-opacity="0" result="BackgroundImageFix"/>
<feBlend mode="normal" in="SourceGraphic" in2="BackgroundImageFix" result="shape"/>
<feGaussianBlur stdDeviation="63.7079" result="effect1_foregroundBlur_204_650"/>
</filter>
<filter id="filter8_f_204_650" x="743.357" y="429.562" width="97.542" height="90.1279" filterUnits="userSpaceOnUse" color-interpolation-filters="sRGB">
<feFlood flood-opacity="0" result="BackgroundImageFix"/>
<feBlend mode="normal" in="SourceGraphic" in2="BackgroundImageFix" result="shape"/>
<feGaussianBlur stdDeviation="20" result="effect1_foregroundBlur_204_650"/>
</filter>
<filter id="filter9_f_204_650" x="687.963" y="378.497" width="224.709" height="165.254" filterUnits="userSpaceOnUse" color-interpolation-filters="sRGB">
<feFlood flood-opacity="0" result="BackgroundImageFix"/>
<feBlend mode="normal" in="SourceGraphic" in2="BackgroundImageFix" result="shape"/>
<feGaussianBlur stdDeviation="29.5" result="effect1_foregroundBlur_204_650"/>
</filter>
<filter id="filter10_f_204_650" x="421.926" y="166.582" width="743.688" height="622.02" filterUnits="userSpaceOnUse" color-interpolation-filters="sRGB">
<feFlood flood-opacity="0" result="BackgroundImageFix"/>
<feBlend mode="normal" in="SourceGraphic" in2="BackgroundImageFix" result="shape"/>
<feGaussianBlur stdDeviation="150" result="effect1_foregroundBlur_204_650"/>
</filter>
<filter id="filter11_i_204_650" x="731.506" y="323.369" width="132.093" height="158.181" filterUnits="userSpaceOnUse" color-interpolation-filters="sRGB">
<feFlood flood-opacity="0" result="BackgroundImageFix"/>
<feBlend mode="normal" in="SourceGraphic" in2="BackgroundImageFix" result="shape"/>
<feColorMatrix in="SourceAlpha" type="matrix" values="0 0 0 0 0 0 0 0 0 0 0 0 0 0 0 0 0 0 127 0" result="hardAlpha"/>
<feOffset dy="4"/>
<feGaussianBlur stdDeviation="19.5"/>
<feComposite in2="hardAlpha" operator="arithmetic" k2="-1" k3="1"/>
<feColorMatrix type="matrix" values="0 0 0 0 1 0 0 0 0 1 0 0 0 0 1 0 0 0 0.5 0"/>
<feBlend mode="normal" in2="shape" result="effect1_innerShadow_204_650"/>
</filter>
<radialGradient id="paint0_radial_204_650" cx="0" cy="0" r="1" gradientUnits="userSpaceOnUse" gradientTransform="translate(296.534 32.7719) rotate(137.424) scale(405.248 607.147)">
<stop stop-color="#D6D2CE"/>
<stop offset="0.432292" stop-color="#D9D9D9"/>
<stop offset="1" stop-color="#F1F1F1"/>
</radialGradient>
<radialGradient id="paint1_radial_204_650" cx="0" cy="0" r="1" gradientUnits="userSpaceOnUse" gradientTransform="translate(221.5 -81.2523) rotate(97.6528) scale(280.601 1023.47)">
<stop/>
<stop offset="1" stop-opacity="0"/>
</radialGradient>
<radialGradient id="paint2_radial_204_650" cx="0" cy="0" r="1" gradientUnits="userSpaceOnUse" gradientTransform="translate(296.534 32.7719) rotate(137.424) scale(405.248 607.147)">
<stop stop-color="#D6D2CE"/>
<stop offset="0.432292" stop-color="#D9D9D9"/>
<stop offset="1" stop-color="#F1F1F1"/>
</radialGradient>
<radialGradient id="paint3_radial_204_650" cx="0" cy="0" r="1" gradientUnits="userSpaceOnUse" gradientTransform="translate(194.508 419.937) rotate(-92.6628) scale(223.328 228.735)">
<stop/>
<stop offset="1" stop-opacity="0"/>
</radialGradient>
<radialGradient id="paint4_radial_204_650" cx="0" cy="0" r="1" gradientUnits="userSpaceOnUse" gradientTransform="translate(72.3536 78.8433) rotate(-71.2958) scale(49.9582 285.811)">
<stop/>
<stop offset="1" stop-opacity="0"/>
</radialGradient>
<linearGradient id="paint5_linear_204_650" x1="587.3" y1="616.804" x2="533.893" y2="613.21" gradientUnits="userSpaceOnUse">
<stop offset="0.395627" stop-color="#E0DDDE"/>
<stop offset="0.863744" stop-color="#F9F9F9"/>
</linearGradient>
<linearGradient id="paint6_linear_204_650" x1="713.34" y1="698.964" x2="869.885" y2="703.895" gradientUnits="userSpaceOnUse">
<stop stop-color="#E3E1E2"/>
<stop offset="1" stop-color="#C0BAB9"/>
</linearGradient>
<radialGradient id="paint7_radial_204_650" cx="0" cy="0" r="1" gradientUnits="userSpaceOnUse" gradientTransform="translate(853.169 773.433) rotate(-129.879) scale(81.7615 205.019)">
<stop/>
<stop offset="1" stop-opacity="0"/>
</radialGradient>
<linearGradient id="paint8_linear_204_650" x1="1002.28" y1="607.778" x2="1050.67" y2="598.333" gradientUnits="userSpaceOnUse">
<stop offset="0.273587" stop-color="#BEB9B6"/>
<stop offset="1" stop-color="#DDDADB"/>
</linearGradient>
<radialGradient id="paint9_radial_204_650" cx="0" cy="0" r="1" gradientUnits="userSpaceOnUse" gradientTransform="translate(217.904 24.082) rotate(137.424) scale(297.791 446.154)">
<stop stop-color="#D6D2CE"/>
<stop offset="0.432292" stop-color="#D9D9D9"/>
<stop offset="1" stop-color="#F1F1F1"/>
</radialGradient>
<radialGradient id="paint10_radial_204_650" cx="0" cy="0" r="1" gradientUnits="userSpaceOnUse" gradientTransform="translate(131.607 280.105) rotate(-52.5614) scale(151.966 162.111)">
<stop stop-color="white"/>
<stop offset="1" stop-color="white" stop-opacity="0"/>
</radialGradient>
<radialGradient id="paint11_radial_204_650" cx="0" cy="0" r="1" gradientUnits="userSpaceOnUse" gradientTransform="translate(218.395 23.6704) rotate(124.48) scale(146.766 154.872)">
<stop stop-opacity="0.34"/>
<stop offset="1" stop-opacity="0"/>
</radialGradient>
<radialGradient id="paint12_radial_204_650" cx="0" cy="0" r="1" gradientUnits="userSpaceOnUse" gradientTransform="translate(217.904 24.082) rotate(137.424) scale(297.791 446.154)">
<stop stop-color="#D6D2CE"/>
<stop offset="0.432292" stop-color="#D9D9D9"/>
<stop offset="1" stop-color="#F1F1F1"/>
</radialGradient>
<radialGradient id="paint13_radial_204_650" cx="0" cy="0" r="1" gradientUnits="userSpaceOnUse" gradientTransform="translate(73.8628 78.1282) rotate(96.6402) scale(101.491 100.962)">
<stop stop-color="#EAC12B"/>
<stop offset="0.370833" stop-color="#FFBB4C"/>
<stop offset="0.6625" stop-color="#F18914"/>
<stop offset="1" stop-color="#AC5600"/>
</radialGradient>
<radialGradient id="paint14_radial_204_650" cx="0" cy="0" r="1" gradientUnits="userSpaceOnUse" gradientTransform="translate(875.084 491.169) rotate(-86.9744) scale(39.9477 18.2361)">
<stop stop-color="#EAC12B"/>
<stop offset="0.370833" stop-color="#FFBB4C"/>
<stop offset="0.6625" stop-color="#F18914"/>
<stop offset="1" stop-color="#AC5600"/>
</radialGradient>
<radialGradient id="paint15_radial_204_650" cx="0" cy="0" r="1" gradientUnits="userSpaceOnUse" gradientTransform="translate(796.142 463.697) rotate(-67.8706) scale(27.1008 81.905)">
<stop stop-color="#EAC12B"/>
<stop offset="0.370833" stop-color="#FFBB4C"/>
<stop offset="0.6625" stop-color="#F18914"/>
<stop offset="1" stop-color="#AC5600"/>
</radialGradient>
<radialGradient id="paint16_radial_204_650" cx="0" cy="0" r="1" gradientUnits="userSpaceOnUse" gradientTransform="translate(711.748 491.169) rotate(-86.9744) scale(39.9477 18.2361)">
<stop stop-color="#EAC12B"/>
<stop offset="0.370833" stop-color="#FFBB4C"/>
<stop offset="0.6625" stop-color="#F18914"/>
<stop offset="1" stop-color="#AC5600"/>
</radialGradient>
<radialGradient id="paint17_radial_204_650" cx="0" cy="0" r="1" gradientUnits="userSpaceOnUse" gradientTransform="translate(65.7364 69.5325) rotate(96.6402) scale(90.3253 89.854)">
<stop stop-color="#EAC12B"/>
<stop offset="0.370833" stop-color="#FFBB4C"/>
<stop offset="0.6625" stop-color="#F18914"/>
<stop offset="1" stop-color="#AC5600"/>
</radialGradient>
<radialGradient id="paint18_radial_204_650" cx="0" cy="0" r="1" gradientUnits="userSpaceOnUse" gradientTransform="translate(59.7545 63.2052) rotate(96.6402) scale(82.1058 81.6774)">
<stop stop-color="#EAC12B"/>
<stop offset="0.370833" stop-color="#FFBB4C"/>
<stop offset="0.6625" stop-color="#F18914"/>
<stop offset="1" stop-color="#AC5600"/>
</radialGradient>
<linearGradient id="paint19_linear_204_650" x1="643.375" y1="547.039" x2="688.779" y2="547.302" gradientUnits="userSpaceOnUse">
<stop stop-color="#E3E1E2"/>
<stop offset="1" stop-color="#C0BAB9"/>
</linearGradient>
<radialGradient id="paint20_radial_204_650" cx="0" cy="0" r="1" gradientUnits="userSpaceOnUse" gradientTransform="translate(811.63 645.473) rotate(-99.2328) scale(41.1531 143.833)">
<stop/>
<stop offset="1" stop-opacity="0"/>
</radialGradient>
<linearGradient id="paint21_linear_204_650" x1="897.502" y1="569.293" x2="963.785" y2="553.008" gradientUnits="userSpaceOnUse">
<stop offset="0.273587" stop-color="#BEB9B6"/>
<stop offset="1" stop-color="#DDDADB"/>
</linearGradient>
<radialGradient id="paint22_radial_204_650" cx="0" cy="0" r="1" gradientUnits="userSpaceOnUse" gradientTransform="translate(119.202 13.1738) rotate(137.424) scale(162.903 244.063)">
<stop stop-color="#D6D2CE"/>
<stop offset="0.432292" stop-color="#D9D9D9"/>
<stop offset="1" stop-color="#F1F1F1"/>
</radialGradient>
<radialGradient id="paint23_radial_204_650" cx="0" cy="0" r="1" gradientUnits="userSpaceOnUse" gradientTransform="translate(119.47 12.9486) rotate(124.48) scale(80.2863 84.7207)">
<stop stop-opacity="0.34"/>
<stop offset="1" stop-opacity="0"/>
</radialGradient>
<radialGradient id="paint24_radial_204_650" cx="0" cy="0" r="1" gradientUnits="userSpaceOnUse" gradientTransform="translate(1.26924 77.5296) rotate(4.56961) scale(121.648 80.572)">
<stop stop-color="white"/>
<stop offset="1" stop-color="white" stop-opacity="0"/>
</radialGradient>
<radialGradient id="paint25_radial_204_650" cx="0" cy="0" r="1" gradientUnits="userSpaceOnUse" gradientTransform="translate(71.4042 7.89134) rotate(137.424) scale(97.5821 146.199)">
<stop stop-color="#D6D2CE"/>
<stop offset="0.432292" stop-color="#D9D9D9"/>
<stop offset="1" stop-color="#F1F1F1"/>
</radialGradient>
<radialGradient id="paint26_radial_204_650" cx="0" cy="0" r="1" gradientUnits="userSpaceOnUse" gradientTransform="translate(71.4042 7.89134) rotate(137.424) scale(97.5821 146.199)">
<stop stop-color="#D6D2CE"/>
<stop offset="0.432292" stop-color="#D9D9D9"/>
<stop offset="1" stop-color="#F1F1F1"/>
</radialGradient>
<radialGradient id="paint27_radial_204_650" cx="0" cy="0" r="1" gradientUnits="userSpaceOnUse" gradientTransform="translate(14.9942 12.8971) rotate(98.1471) scale(16.8111 20.4255)">
<stop stop-color="#EAC12B"/>
<stop offset="0.370833" stop-color="#FFBB4C"/>
<stop offset="0.6625" stop-color="#F18914"/>
<stop offset="1" stop-color="#AC5600"/>
</radialGradient>
<linearGradient id="paint28_linear_204_650" x1="841.103" y1="464.758" x2="826.112" y2="464.678" gradientUnits="userSpaceOnUse">
<stop stop-color="#E3E1E2"/>
<stop offset="1" stop-color="#C0BAB9"/>
</linearGradient>
<radialGradient id="paint29_radial_204_650" cx="0" cy="0" r="1" gradientUnits="userSpaceOnUse" gradientTransform="translate(785.769 429.487) rotate(81.4962) scale(14.6634 47.3286)">
<stop/>
<stop offset="1" stop-opacity="0"/>
</radialGradient>
<linearGradient id="paint30_linear_204_650" x1="757.569" y1="456.793" x2="735.496" y2="461.796" gradientUnits="userSpaceOnUse">
<stop offset="0.273587" stop-color="#BEB9B6"/>
<stop offset="1" stop-color="#DDDADB"/>
</linearGradient>
<linearGradient id="paint31_linear_204_650" x1="711.591" y1="512.837" x2="748.596" y2="505.528" gradientUnits="userSpaceOnUse">
<stop offset="0.273587" stop-color="#BEB9B6"/>
<stop offset="1" stop-color="#DDDADB"/>
</linearGradient>
<linearGradient id="paint32_linear_204_650" x1="850.009" y1="512.837" x2="887.014" y2="505.528" gradientUnits="userSpaceOnUse">
<stop offset="0.273587" stop-color="#BEB9B6"/>
<stop offset="1" stop-color="#DDDADB"/>
</linearGradient>
<radialGradient id="paint33_radial_204_650" cx="0" cy="0" r="1" gradientUnits="userSpaceOnUse" gradientTransform="translate(792.658 496.032) rotate(90) scale(59.0912 151.115)">
<stop offset="0.436971" stop-color="#D9D9D9" stop-opacity="0"/>
<stop offset="0.829586" stop-color="#ECC467"/>
</radialGradient>
<radialGradient id="paint34_radial_204_650" cx="0" cy="0" r="1" gradientUnits="userSpaceOnUse" gradientTransform="translate(49.1042 50.7895) rotate(96.7892) scale(65.9977 67.0991)">
<stop stop-color="#EAC12B"/>
<stop offset="0.370833" stop-color="#FFBB4C"/>
<stop offset="0.6625" stop-color="#F18914"/>
<stop offset="1" stop-color="#AC5600"/>
</radialGradient>
<linearGradient id="paint35_linear_204_650" x1="-11.9853" y1="72.0089" x2="8.77969" y2="-26.4691" gradientUnits="userSpaceOnUse">
<stop stop-color="#FFC165"/>
<stop offset="0.672007" stop-color="#FFED99"/>
</linearGradient>
<linearGradient id="paint36_linear_204_650" x1="-52.4541" y1="105.131" x2="-72.8536" y2="-39.4851" gradientUnits="userSpaceOnUse">
<stop stop-color="#F1D180"/>
<stop offset="0.672007" stop-color="#FFED99"/>
</linearGradient>
<linearGradient id="paint37_linear_204_650" x1="-11.9853" y1="68.9552" x2="65.1465" y2="17.9237" gradientUnits="userSpaceOnUse">
<stop stop-color="#FFC165"/>
<stop offset="0.672007" stop-color="#FFED99"/>
</linearGradient>
<linearGradient id="paint38_linear_204_650" x1="-52.4541" y1="105.131" x2="-72.8536" y2="-39.4851" gradientUnits="userSpaceOnUse">
<stop stop-color="#F1D180"/>
<stop offset="0.672007" stop-color="#FFED99"/>
</linearGradient>
<linearGradient id="paint39_linear_204_650" x1="-23.5147" y1="81.846" x2="82.9617" y2="-16.8786" gradientUnits="userSpaceOnUse">
<stop stop-color="#FFC165"/>
<stop offset="0.672007" stop-color="#FFED99"/>
</linearGradient>
<linearGradient id="paint40_linear_204_650" x1="869.864" y1="465.723" x2="791.302" y2="306.462" gradientUnits="userSpaceOnUse">
<stop stop-color="#FFC165"/>
<stop offset="0.672007" stop-color="#FFED99"/>
</linearGradient>
</defs>
</svg>
