<svg width="614" height="162" viewBox="0 0 614 162" fill="none" xmlns="http://www.w3.org/2000/svg">
<g clip-path="url(#clip0_204_994)">
<path d="M583.284 160.856H12.6801L0.892578 149.068V142.098L12.681 130.309H12.8088V56.7915H12.681L0.892578 45.003V13.6935L13.4405 1.14551H479.392L491.94 13.6935V13.8221H565.458V13.6935L578.006 1.14551H600.569L613.118 13.6935V131.022L583.284 160.856Z" fill="#050509"/>
<path d="M583.284 160.856L613.118 131.022V13.6931L600.569 1.14461H578.005L565.458 13.6922V13.8209H491.94V13.6922L479.392 1.14461H13.4399L0.892166 13.6931V45.0029L12.6805 56.7911H12.8082V130.309H12.6805L0.892166 142.098V149.068L12.6796 160.856L583.284 160.856ZM583.284 161.743H12.3121L0.00488281 149.436V141.731L11.9209 129.814V57.2863L0.00488281 45.3704V13.3256L13.0723 0.257324H479.759L492.436 12.9336H564.962L577.638 0.257324H600.937L614.005 13.3256V131.389L583.911 161.483L583.284 160.856L583.284 161.743Z" fill="white" fill-opacity="0.2"/>
<path d="M524.882 1.14453H530.515L536.15 6.77789H530.515L524.882 1.14453Z" fill="white"/>
<path opacity="0.8" d="M513.616 1.14453H519.25L524.885 6.77789H519.25L513.616 1.14453Z" fill="white"/>
<path opacity="0.65" d="M502.082 1.14453H507.715L513.351 6.77789H507.715L502.082 1.14453Z" fill="white"/>
<path opacity="0.4" d="M490.547 1.14453H496.18L501.815 6.77789H496.18L490.547 1.14453Z" fill="white"/>
<path d="M0.892029 87.3867V93.0201L6.52539 98.6552L6.52539 93.0201L0.892029 87.3867Z" fill="white"/>
<path d="M0.892029 76.1211V81.7545L6.52539 87.3896L6.52539 81.7545L0.892029 76.1211Z" fill="white"/>
<path d="M0.892029 64.5864V70.2198L6.52539 75.8549L6.52539 70.2198L0.892029 64.5864Z" fill="white"/>
<path d="M0.892029 53.0518V58.6851L6.52539 64.3203L6.52539 58.6851L0.892029 53.0518Z" fill="white"/>
<path d="M583.284 160.858H12.6801L0.892578 149.069V142.099L12.681 130.31H12.8088V120.042H613.118V131.024L583.284 160.858Z" fill="#F3BA2F"/>
<path d="M11.9834 120.485H613.561" stroke="#37373A" stroke-width="0.887283" stroke-dasharray="3.55 3.55"/>
</g>
<defs>
<clipPath id="clip0_204_994">
<rect width="614" height="161.486" fill="white" transform="translate(0.00488281 0.257324)"/>
</clipPath>
</defs>
</svg>
