<svg width="85" height="85" viewBox="0 0 85 85" fill="none" xmlns="http://www.w3.org/2000/svg">
<g id="bg-telegram.svg" clip-path="url(#clip0_204_894)">
<g id="Group 126">
<g id="Group 119">
<g id="Group 107">
<g id="Subtraction 2">
<path id="Vector" d="M52.272 1.50195H9.614L1.5 9.60195V75.422L9.615 83.5219H75.385L84 74.922V33.184L52.272 1.50195Z" fill="#050509"/>
<path id="Vector_2" d="M52.2723 1.50215L9.6144 1.50244L1.5 9.60497V75.425L9.6153 83.5284H75.3855L84.0003 74.9253V33.1842L52.2723 1.50215ZM9.20061 0.502441H52.6864L85.0003 32.7696V75.34L75.7993 84.5284H9.20151L0.5 75.8397V9.19033L9.20061 0.502441Z" fill="white" fill-opacity="0.2"/>
</g>
</g>
<path id="Path 194" d="M83.6 20.5282V1.42822H64.5L83.6 20.5282Z" fill="url(#paint0_radial_204_894)"/>
</g>
<path id="Path 72" d="M42.781 54.9902C40.3521 54.9902 37.9776 54.27 35.958 52.9205C33.9384 51.5711 32.3644 49.653 31.4348 47.409C30.5053 45.1649 30.2621 42.6956 30.736 40.3133C31.2098 37.931 32.3795 35.7428 34.097 34.0252C35.8146 32.3077 38.0028 31.1381 40.3851 30.6642C42.7674 30.1903 45.2367 30.4335 47.4807 31.3631C49.7248 32.2926 51.6428 33.8667 52.9923 35.8863C54.3417 37.9059 55.062 40.2803 55.062 42.7092C55.062 45.9664 53.7681 49.0901 51.465 51.3932C49.1618 53.6963 46.0381 54.9902 42.781 54.9902ZM38.961 44.1462L38.977 44.1372L40.045 47.6622C40.183 48.0442 40.372 48.1132 40.601 48.0812C40.7979 48.0434 40.975 47.9371 41.101 47.7812L42.56 46.3712L45.7 48.6892C46.272 49.0052 46.684 48.8412 46.826 48.1582L48.861 38.5522C49.086 37.6582 48.693 37.2992 47.999 37.5842L36.042 42.2032C35.227 42.5302 35.231 42.9872 35.895 43.1892L38.962 44.1472L38.961 44.1462Z" fill="#E5E5E5"/>
</g>
</g>
<defs>
<radialGradient id="paint0_radial_204_894" cx="0" cy="0" r="1" gradientUnits="userSpaceOnUse" gradientTransform="translate(73.5652 11.0169) rotate(96.6402) scale(12.456 12.391)">
<stop stop-color="#EAC12B"/>
<stop offset="0.370833" stop-color="#FFBB4C"/>
<stop offset="0.6625" stop-color="#F18914"/>
<stop offset="1" stop-color="#AC5600"/>
</radialGradient>
<clipPath id="clip0_204_894">
<rect width="84.5" height="84.026" fill="white" transform="translate(0.5 0.501953)"/>
</clipPath>
</defs>
</svg>
