<?xml version="1.0" encoding="UTF-8"?>
<svg xmlns:xodm="http://www.corel.com/coreldraw/odm/2003" xmlns="http://www.w3.org/2000/svg" xmlns:xlink="http://www.w3.org/1999/xlink" version="1.1" id="Layer_1" x="0px" y="0px" viewBox="0 0 2500 2500" style="enable-background:new 0 0 2500 2500;" xml:space="preserve">
<style type="text/css">
	.st0{fill:none;}
	.st1{fill:#FFBE40;}
</style>
<g id="Layer_x0020_1">
	<rect y="0" class="st0" width="2500" height="2500"></rect>
	<path id="形状_519" class="st1" d="M1259.5,2500C568.6,2504.7,4.8,1948.8,0,1259.5C-4.7,568.6,551.2,4.8,1240.5,0   C1931.4-4.7,2495.2,549.6,2500,1240.5v9.5C2501.6,1937.7,1947.3,2496.8,1259.5,2500z M1259.5,185.9   C671.9,182.7,192.2,654.4,189,1243.6c-3.2,587.7,468.5,1067.3,1057.8,1070.5c587.7,3.2,1067.3-468.5,1070.5-1056.2v-7.9   C2317.3,663.9,1845.6,189,1259.5,185.9L1259.5,185.9L1259.5,185.9z M1304,1078.5l239.8-293.8c25.4-30.2,20.7-76.2-9.5-101.7   c-12.7-9.5-28.6-15.9-44.5-15.9l0,0c-20.7,0-41.3,9.5-54,25.4l-222.4,271.6l-224-271.6c-12.7-15.9-33.3-25.4-54-25.4H751.3   c-39.7,0-71.5,33.4-71.5,73.1c0,15.9,6.3,31.8,15.9,44.5l332,405l-422.5,517.8c-25.4,30.2-23.8,74.7,6.3,100.1   c30.2,25.4,74.7,23.8,100.1-6.3l1.6-1.6l406.6-497.1L1304,1078.5L1304,1078.5z M1859.9,667.1c-20.6,0-41.3,9.5-54,25.4l-405,497.1   l-184.2,225.5L976.8,1709c-25.4,30.2-22.2,74.7,7.9,100.1c30.2,25.4,74.7,22.2,100.1-7.9l222.4-271.6l222.4,271.6   c12.7,15.9,33.3,25.4,54,25.4h184.2c39.7,0,71.5-31.8,71.5-71.5c0-17.5-6.3-33.3-17.5-46.1l-330.4-405l422.5-517.8   c25.4-31.8,19.1-76.2-11.1-101.7C1891.7,673.5,1875.8,668.7,1859.9,667.1L1859.9,667.1z"></path>
</g>
</svg>
